<svg width="21" height="21" fill="none" xmlns="http://www.w3.org/2000/svg">
    <path fill-rule="evenodd" clip-rule="evenodd" d="M8.5 4a4.5 4.5 0 1 0 0 9 4.5 4.5 0 0 0 0-9ZM3 8.5a5.5 5.5 0 1 1 11 0 5.5 5.5 0 0 1-11 0Z" fill="#484900"/>
    <path fill-rule="evenodd" clip-rule="evenodd" d="M10.854 6.146a.5.5 0 0 1 0 .708L9.207 8.5l1.647 1.646a.5.5 0 0 1-.708.708L8.5 9.207l-1.646 1.647a.5.5 0 0 1-.708-.707L7.793 8.5 6.146 6.854a.5.5 0 1 1 .708-.708L8.5 7.793l1.646-1.647a.5.5 0 0 1 .708 0ZM11.723 11.722a.5.5 0 0 1 .707 0l5.424 5.424a.5.5 0 0 1-.707.707l-5.424-5.424a.5.5 0 0 1 0-.707Z" fill="#484900"/>
</svg>
