<svg width="21" height="21" fill="none" xmlns="http://www.w3.org/2000/svg">
    <path fill-rule="evenodd" clip-rule="evenodd" d="M6.145 6.144a.5.5 0 1 1 .708.707L4.707 9H13.5c1.077 0 1.977.269 2.604.896.626.627.896 1.526.896 2.604 0 1.077-.27 1.977-.896 2.604-.627.627-1.527.896-2.604.896h-5a.5.5 0 0 1 0-1h5c.923 0 1.523-.23 1.896-.603.374-.373.604-.974.604-1.897 0-.924-.23-1.524-.604-1.897-.373-.373-.973-.603-1.896-.603H4.708l2.146 2.146a.5.5 0 1 1-.707.707L3.162 9.869a.499.499 0 0 1 0-.737l2.983-2.988Z" fill="#484900"/>
</svg>
