<svg width="21" height="21" fill="none" xmlns="http://www.w3.org/2000/svg">
    <path fill-rule="evenodd" clip-rule="evenodd" d="M8.5 4a4.5 4.5 0 1 0 0 9 4.5 4.5 0 0 0 0-9ZM3 8.5a5.5 5.5 0 1 1 11 0 5.5 5.5 0 0 1-11 0Z" fill="#484900"/>
    <path fill-rule="evenodd" clip-rule="evenodd" d="M8.5 6a.5.5 0 0 1 .5.5V8h1.5a.5.5 0 0 1 0 1H9v1.5a.5.5 0 0 1-1 0V9H6.5a.5.5 0 0 1 0-1H8V6.5a.5.5 0 0 1 .5-.5ZM11.78 11.78a.5.5 0 0 1 .707 0l5.367 5.366a.5.5 0 1 1-.708.707l-5.367-5.367a.5.5 0 0 1 0-.707Z" fill="#484900"/>
</svg>
