<svg width="21" height="21" fill="none" xmlns="http://www.w3.org/2000/svg">
    <path fill-rule="evenodd" clip-rule="evenodd" d="M16.538 4.254a1.616 1.616 0 0 0-2.18.102l-9.407 9.456-.76 3 3.053-.764L15.793 7.5l-.647-.646a.5.5 0 0 1 .707-.708l.647.647.146-.147c.631-.63.634-1.652.007-2.286l-.115-.106Zm.316 3.6.5-.5a2.621 2.621 0 0 0-.015-3.722l-.132-.121a2.616 2.616 0 0 0-3.557.14l-9.504 9.553a.5.5 0 0 0-.13.23l-1 3.943a.5.5 0 0 0 .605.608l4-1a.5.5 0 0 0 .233-.131l9-9ZM9 17.5a.5.5 0 0 1 .5-.5h8a.5.5 0 1 1 0 1h-8a.5.5 0 0 1-.5-.5Z" fill="#484900"/>
</svg>
